{"title":"Clerks Complete Animated Series (PSP, iPod, Zune)","uid":5740068,"size":466116068,"categoryP":"video","categoryS":"handheld","magnet":"?xt=urn:btih:2106dafed5d74c1e559ac901a645142aa983a5c4&amp;dn=Clerks+Complete+Animated+Series+%28PSP%2C+iPod%2C+Zune%29&amp;tr=udp%3A%2F%2Ftracker.openbittorrent.com%3A80&amp;tr=udp%3A%2F%2Fopen.demonii.com%3A1337&amp;tr=udp%3A%2F%2Ftracker.coppersurfer.tk%3A6969&amp;tr=udp%3A%2F%2Fexodus.desync.com%3A6969","seeders":0,"leechers":0,"uploader":"The_Day_Walker","files":-1,"time":1280971957,"description":"Source: &lt;a href=&quot; http://thepiratebay.se/torrent/4803471/Clerks_Complete_Animated_Series_DvDrip-McTav/&quot; rel=&quot;nofollow&quot; target=&quot;_NEW&quot;&gt; http://thepiratebay.se/torrent/4803471/Clerks_Complete_Animated_Series_DvDrip-McTav/&lt;/a&gt;\n\nEncoded For PSP, iPod, and Zune\n\nEnjoy and Please help seed. =)\n\nShow info - Following the events of the movie 'Clerks', Dante Hicks still works at the Quick Stop, and his best friend Randall Graves still 'works' at the video store (even though he spends most of his time figuring out ways to get Dante into trouble). However, with the arrival into town of diabolical billionaire megalomaniac Leonardo Leonardo, their lives are about to get more unusual, even if their jobs remain as unsatisfying and tedious as before. Soon, Dante and Randall find themselves thrown headlong into crazy adventures involving, in no particular order, a monkey, Little League Baseball, Korean animators, Canadian exports, lesbian ex-girlfriends of Randall, Judge Reinhold, the Matrix, refridgerator door locks and numerous unwarranted 'Star Wars' references. And as always, they receive very little in the way of constructive help from slackers Jay and Silent Bob. \n\n\nVideo Specs:\nFormat                           : MPEG-4\nCodec ID                         : M4V \nFile size                        : 75.2 MiB\nDuration                         : 21mn 58s\nOverall bit rate                 : 478 Kbps\nMovie name                       : Clerks E01\nEncoded date                     : 2010\nWriting application              : Lavf52.33.0\n\nVideo\nID                               : 1\nFormat                           : AVC\nFormat/Info                      : Advanced Video Codec\nFormat profile                   : &lt;a class=&quot;__cf_email__&quot; href=&quot;/cdn-cgi/l/email-protection&quot; data-cfemail=&quot;d89ab9abbdb4b1b6bd9894e9f6eb&quot;&gt;[email&amp;#160;protected]&lt;/a&gt;&lt;script data-cfhash='f9e31' type=&quot;text/javascript&quot;&gt;\n/* &lt;![CDATA[ */!function(){try{var t=&quot;currentScript&quot;in document?document.currentScript:function(){for(var t=document.getElementsByTagName(&quot;script&quot;),e=t.length;e--;)if(t[e].getAttribute(&quot;data-cfhash&quot;))return t[e]}();if(t&amp;&amp;t.previousSibling){var e,r,n,i,c=t.previousSibling,a=c.getAttribute(&quot;data-cfemail&quot;);if(a){for(e=&quot;&quot;,r=parseInt(a.substr(0,2),16),n=2;a.length-n;n+=2)i=parseInt(a.substr(n,2),16)^r,e+=String.fromCharCode(i);e=document.createTextNode(e),c.parentNode.replaceChild(e,c)}t.parentNode.removeChild(t);}}catch(u){}}()/* ]]&gt; */&lt;/script&gt;\nFormat settings, CABAC           : No\nFormat settings, ReFrames        : 1 frame\nCodec ID                         : avc1\nCodec ID/Info                    : Advanced Video Coding\nDuration                         : 21mn 58s\nBit rate mode                    : Variable\nBit rate                         : 345 Kbps\nWidth                            : 320 pixels\nHeight                           : 240 pixels\nDisplay aspect ratio             : 4:3\nFrame rate mode                  : Constant\nFrame rate                       : 29.970 fps\nColor space                      : YUV\nChroma subsampling               : 4:2:0\nBit depth                        : 8 bits\nScan type                        : Progressive\nBits/(Pixel*Frame)               : 0.150\nStream size                      : 54.3 MiB (72%)\n\nAudio\nID                               : 2\nFormat                           : AAC\nFormat/Info                      : Advanced Audio Codec\nFormat version                   : Version 4\nFormat profile                   : LC\nFormat settings, SBR             : No\nCodec ID                         : 40\nDuration                         : 21mn 57s\nBit rate mode                    : Variable\nBit rate                         : 128 Kbps\nChannel(s)                       : 2 channels\nChannel positions                : Front: L R\nSampling rate                    : 48.0 KHz\nStream size                      : 20.1 MiB (27%)\n\n","torrent":{"xt":"urn:btih:2106dafed5d74c1e559ac901a645142aa983a5c4","amp;dn":"Clerks+Complete+Animated+Series+%28PSP%2C+iPod%2C+Zune%29","amp;tr":["udp%3A%2F%2Ftracker.openbittorrent.com%3A80","udp%3A%2F%2Fopen.demonii.com%3A1337","udp%3A%2F%2Ftracker.coppersurfer.tk%3A6969","udp%3A%2F%2Fexodus.desync.com%3A6969"],"infoHash":"2106dafed5d74c1e559ac901a645142aa983a5c4","infoHashBuffer":{"type":"Buffer","data":[33,6,218,254,213,215,76,30,85,154,201,1,166,69,20,42,169,131,165,196]},"announce":[],"urlList":[]}}